<?xml version="1.0" encoding="UTF-8" standalone="no"?>
<svg id="svg3" xmlns="http://www.w3.org/2000/svg" height="400" width="400" version="1.1" viewBox="0 0 400 400">
 <path id="Layer" style="fill:#18a497" d="m-1.03 0 402.4 0.1067v400.8l-295-0.8-0.8-172.9h-0.09v-1.2c0-65.22 51.79-117.9 115.9-117.9 38.44 0 69.52 31.63 69.52 70.76s-31.08 70.76-69.52 70.76c-12.8 0-23.17-10.55-23.17-23.59 0-13.03 10.37-23.59 23.17-23.59s23.17-10.55 23.17-23.59c0-13.03-10.37-23.59-23.17-23.59-38.44 0-69.52 31.63-69.52 70.76s31.08 70.76 69.52 70.76c64.07 0 115.9-52.71 115.9-117.9 0-65.22-51.79-117.9-115.9-117.9-89.7 0-162.2 73.79-162.2 165.1v1.43h-0.39l0.7482 172.9-59.62-0.1502z"/>
</svg>
